<svg width="296" height="261" viewBox="0 0 296 261" fill="none" xmlns="http://www.w3.org/2000/svg">
<rect width="296" height="261" fill="white"/>
<path d="M67.6541 213.511C67.6541 212.906 67.4406 212.443 67.0135 212.123C66.5863 211.795 65.8175 211.454 64.707 211.098C63.5965 210.735 62.7173 210.379 62.0695 210.03C60.3041 209.076 59.4214 207.791 59.4214 206.175C59.4214 205.335 59.6563 204.588 60.1261 203.933C60.6031 203.271 61.2829 202.754 62.1656 202.384C63.0555 202.014 64.0521 201.829 65.1555 201.829C66.266 201.829 67.2555 202.032 68.124 202.438C68.9925 202.836 69.6652 203.402 70.1421 204.135C70.6262 204.869 70.8682 205.702 70.8682 206.634H67.6648C67.6648 205.922 67.4406 205.371 66.9921 204.979C66.5436 204.58 65.9136 204.381 65.1021 204.381C64.319 204.381 63.7104 204.548 63.2761 204.883C62.8419 205.21 62.6248 205.645 62.6248 206.186C62.6248 206.691 62.8775 207.115 63.3829 207.456C63.8955 207.798 64.6465 208.118 65.636 208.417C67.4584 208.966 68.786 209.645 69.6189 210.457C70.4518 211.268 70.8682 212.279 70.8682 213.489C70.8682 214.835 70.3593 215.892 69.3413 216.661C68.3233 217.423 66.9529 217.803 65.2302 217.803C64.0343 217.803 62.9451 217.586 61.9627 217.152C60.9804 216.711 60.2293 216.109 59.7097 215.347C59.1971 214.586 58.9408 213.703 58.9408 212.699H62.1549C62.1549 214.415 63.18 215.273 65.2302 215.273C65.9919 215.273 66.5863 215.12 67.0135 214.814C67.4406 214.5 67.6541 214.066 67.6541 213.511ZM86.6923 210.169C86.6923 211.699 86.4218 213.041 85.8807 214.194C85.3397 215.347 84.5638 216.237 83.5529 216.864C82.5492 217.49 81.396 217.803 80.0932 217.803C78.8047 217.803 77.6551 217.494 76.6442 216.874C75.6334 216.255 74.8503 215.372 74.295 214.226C73.7398 213.073 73.4586 211.749 73.4515 210.254V209.485C73.4515 207.955 73.7255 206.609 74.2737 205.449C74.8289 204.281 75.6084 203.388 76.6122 202.769C77.623 202.142 78.7763 201.829 80.0719 201.829C81.3675 201.829 82.5172 202.142 83.5209 202.769C84.5317 203.388 85.3112 204.281 85.8594 205.449C86.4146 206.609 86.6923 207.951 86.6923 209.475V210.169ZM83.4461 209.464C83.4461 207.834 83.1543 206.595 82.5705 205.748C81.9868 204.901 81.1539 204.477 80.0719 204.477C78.997 204.477 78.1676 204.897 77.5839 205.737C77.0002 206.57 76.7047 207.794 76.6976 209.41V210.169C76.6976 211.756 76.9895 212.988 77.5732 213.863C78.1569 214.739 78.997 215.177 80.0932 215.177C81.1682 215.177 81.9939 214.757 82.5705 213.917C83.1472 213.069 83.439 211.838 83.4461 210.222V209.464ZM101.662 202.043V212.283C101.662 213.984 101.128 215.33 100.06 216.319C98.9997 217.309 97.5475 217.803 95.7037 217.803C93.8884 217.803 92.4469 217.323 91.3791 216.362C90.3113 215.401 89.7667 214.08 89.7453 212.4V202.043H92.9488V212.304C92.9488 213.322 93.1908 214.066 93.6749 214.536C94.1661 214.999 94.8423 215.23 95.7037 215.23C97.5047 215.23 98.4195 214.283 98.448 212.39V202.043H101.662ZM110.919 211.898H108.367V217.59H105.164V202.043H110.94C112.777 202.043 114.194 202.452 115.19 203.271C116.187 204.089 116.685 205.246 116.685 206.741C116.685 207.802 116.454 208.688 115.991 209.4C115.536 210.105 114.841 210.667 113.909 211.087L117.273 217.44V217.59H113.834L110.919 211.898ZM108.367 209.304H110.951C111.756 209.304 112.378 209.101 112.82 208.695C113.261 208.282 113.482 207.716 113.482 206.997C113.482 206.264 113.272 205.687 112.852 205.267C112.439 204.847 111.802 204.637 110.94 204.637H108.367V209.304ZM132.21 212.411C132.089 214.084 131.47 215.401 130.352 216.362C129.242 217.323 127.775 217.803 125.953 217.803C123.96 217.803 122.39 217.134 121.244 215.796C120.105 214.45 119.535 212.607 119.535 210.265V209.314C119.535 207.819 119.799 206.502 120.326 205.363C120.852 204.224 121.603 203.352 122.579 202.747C123.561 202.135 124.7 201.829 125.996 201.829C127.79 201.829 129.235 202.31 130.331 203.271C131.427 204.232 132.061 205.581 132.232 207.318H129.028C128.95 206.314 128.669 205.588 128.185 205.139C127.708 204.684 126.978 204.456 125.996 204.456C124.928 204.456 124.127 204.84 123.593 205.609C123.066 206.371 122.796 207.556 122.782 209.165V210.339C122.782 212.019 123.034 213.247 123.54 214.023C124.052 214.799 124.857 215.187 125.953 215.187C126.942 215.187 127.679 214.963 128.163 214.515C128.654 214.059 128.936 213.358 129.007 212.411H132.21ZM144.543 210.852H138.392V215.016H145.61V217.59H135.189V202.043H145.589V204.637H138.392V208.343H144.543V210.852ZM160.281 204.637H155.519V217.59H152.315V204.637H147.617V202.043H160.281V204.637ZM172.347 210.852H166.196V215.016H173.414V217.59H162.993V202.043H173.393V204.637H166.196V208.343H172.347V210.852ZM180.354 202.043L184.348 213.319L188.32 202.043H192.527V217.59H189.313V213.34L189.634 206.004L185.437 217.59H183.237L179.052 206.015L179.372 213.34V217.59H176.168V202.043H180.354ZM196.2 217.59V202.043H201.645C203.532 202.043 204.963 202.406 205.938 203.132C206.913 203.851 207.401 204.908 207.401 206.303C207.401 207.065 207.205 207.738 206.814 208.321C206.422 208.898 205.878 209.321 205.18 209.592C205.977 209.791 206.604 210.193 207.059 210.799C207.522 211.404 207.753 212.144 207.753 213.02C207.753 214.515 207.276 215.646 206.322 216.415C205.369 217.184 204.009 217.576 202.243 217.59H196.2ZM199.403 210.82V215.016H202.147C202.902 215.016 203.489 214.838 203.909 214.483C204.336 214.119 204.55 213.621 204.55 212.988C204.55 211.564 203.813 210.841 202.34 210.82H199.403ZM199.403 208.556H201.774C203.39 208.528 204.198 207.883 204.198 206.623C204.198 205.919 203.991 205.413 203.578 205.107C203.172 204.794 202.528 204.637 201.645 204.637H199.403V208.556ZM220.395 210.852H214.245V215.016H221.463V217.59H211.041V202.043H221.442V204.637H214.245V208.343H220.395V210.852ZM229.973 211.898H227.421V217.59H224.217V202.043H229.994C231.831 202.043 233.247 202.452 234.244 203.271C235.241 204.089 235.739 205.246 235.739 206.741C235.739 207.802 235.507 208.688 235.045 209.4C234.589 210.105 233.895 210.667 232.963 211.087L236.326 217.44V217.59H232.888L229.973 211.898ZM227.421 209.304H230.005C230.809 209.304 231.432 209.101 231.873 208.695C232.315 208.282 232.535 207.716 232.535 206.997C232.535 206.264 232.325 205.687 231.905 205.267C231.493 204.847 230.855 204.637 229.994 204.637H227.421V209.304Z" fill="#181818"/>
<path d="M240.887 180.887L152.91 43.228L109.336 120.101L173.334 120.578L207.037 160.635L70 160.635" stroke="#181818" stroke-width="7"/>
<path d="M135.382 36.5694L57.8842 180.524L213.88 181.686" stroke="#181818" stroke-width="7"/>
</svg>
